Release info:

General
Format                                   : Matroska
Format version                           : Version 4 / Version 2
File size                                : 692 MiB
Duration                                 : 1h 46mn
Overall bit rate mode                    : Variable
Overall bit rate                         : 912 Kbps
Movie name                               : Table No 21  HDRip Hindi

Video
ID                                       : 1
Format                                   : MPEG-4 Visual
Format profile                           : Advanced Simple@L5
Format settings, BVOP                    : Yes
Format settings, QPel                    : No
Format settings, GMC                     : No warppoints
Format settings, Matrix                  : Default (MPEG)
Codec ID                                 : V_MS/VFW/FOURCC / XVID
Codec ID/Hint                            : XviD
Duration                                 : 1h 46mn
Bit rate                                 : 775 Kbps
Width                                    : 640 pixels
Height                                   : 272 pixels
Display aspect ratio                     : 2.35:1
Frame rate mode                          : Constant
Frame rate                               : 24.000 fps
Color space                              : YUV
Chroma subsampling                       : 4:2:0
Bit depth                                : 8 bits
Scan type                                : Progressive
Compression mode                         : Lossy
Bits/(Pixel*Frame)                       : 0.185
Stream size                              : 588 MiB (85%)
Title                                    : Table No 21  HDRip Hindi
Language                                 : Hindi
Default                                  : Yes
Forced                                   : No

Audio
ID                                       : 2
Format                                   : MPEG Audio
Format version                           : Version 1
Format profile                           : Layer 3
Mode                                     : Joint stereo
Mode extension                           : MS Stereo
Codec ID                                 : A_MPEG/L3
Codec ID/Hint                            : MP3
Duration                                 : 1h 46mn
Bit rate mode                            : Variable
Bit rate                                 : 119 Kbps
Nominal bit rate                         : 128 Kbps
Channel(s)                               : 2 channels
Sampling rate                            : 48.0 KHz
Compression mode                         : Lossy
Stream size                              : 90.2 MiB (13%)
Title                                    : Table No 21  HDRip Hindi
Language                                 : Hindi
Default                                  : Yes
Forced                                   : No



Source:
credit to original movie ripper DDR (Thanks)

IMDB Info:

A couple live a mediocre life and are thrilled to have won an exotic vacation to Fiji & their excitement... 

Director: Aditya Datt
Writers: Aditya Datt, Abhijit Deshpande, 
Stars: Tena Desae, Asheesh Kapur and Rajeev Khandelwal 

Genres: Thriller
 
http://www.imdb.com/title/tt2229842/

Screen Shot:
 
http://www.shotpix.com/images/37939588567533550013.png 
http://www.shotpix.com/images/84709793189974140918.png 
http://www.shotpix.com/images/01402664891241608567.png 
http://www.shotpix.com/images/79846221253101153266.png